<?xml version="1.0" encoding="UTF-8"?>
<svg version="1.1" xmlns="http://www.w3.org/2000/svg" width="500" height="500">
<path d="M0 0 C4.19139053 0.91510962 6.4085133 3.2500279 9.28266907 6.24607849 C9.87530045 6.83944 10.46793182 7.43280151 11.07852173 8.04414368 C13.03111654 10.00600561 14.9617113 11.98813159 16.89302063 13.97093201 C18.24590144 15.33754651 19.60019049 16.70276823 20.95582581 18.06665039 C24.51925435 21.65864213 28.06473412 25.267837 31.6063385 28.8813324 C35.91763278 33.27420444 40.24804691 37.64821122 44.57738113 42.0232935 C47.94430675 45.42602928 51.30763473 48.83206743 54.66053772 52.24862671 C55.27666428 52.87470322 55.89279083 53.50077972 56.52758789 54.14582825 C57.68054221 55.31746958 58.83156512 56.49101578 59.98031616 57.66677856 C63.48880389 61.47227072 63.48880389 61.47227072 68.25476742 62.78983021 C69.65096986 62.79171612 69.65096986 62.79171612 71.07537842 62.79364014 C72.14238983 62.79764832 73.20940125 62.80165649 74.30874634 62.80578613 C75.48438644 62.80525742 76.66002655 62.8047287 77.87129211 62.80418396 C79.10546875 62.80765839 80.33964539 62.81113281 81.61122131 62.81471252 C84.29859383 62.82207964 86.98591669 62.82774794 89.67329216 62.83100319 C93.92114208 62.8369074 98.16890795 62.85344153 102.41671753 62.87234497 C103.87016577 62.87868241 105.32361407 62.88500803 106.77706242 62.89132214 C107.50496829 62.89448795 108.23287417 62.89765376 108.9828378 62.9009155 C118.87418923 62.94302011 128.76550154 62.97597809 138.65693665 62.98826599 C145.32657357 62.99663673 151.99600259 63.01908964 158.66553551 63.05762166 C162.19634226 63.07741468 165.72683799 63.0897763 169.25770378 63.08478737 C173.19420889 63.07929298 177.1301866 63.10449961 181.06660461 63.13230896 C182.24022049 63.12570755 183.41383636 63.11910614 184.62301636 63.11230469 C185.6928476 63.12477234 186.76267883 63.13723999 187.8649292 63.15008545 C189.26169718 63.15366798 189.26169718 63.15366798 190.6866827 63.15732288 C193.03364563 63.66233826 193.03364563 63.66233826 194.79786777 65.51185894 C196.41238452 68.32141314 197.06712056 70.97404382 197.81098938 74.13108826 C197.97329544 74.80279556 198.1356015 75.47450287 198.30282593 76.16656494 C198.66736925 77.67547458 199.02802333 79.18532741 199.38545227 80.69593811 C200.45883313 85.21602813 201.57317402 89.72604128 202.68598938 94.23655701 C202.94004547 95.26749985 203.19410156 96.29844269 203.45585632 97.36062622 C206.95369037 111.47749095 210.6898336 125.53266331 214.40464401 139.59360123 C215.47495019 143.64550288 216.54386484 147.69777169 217.61299133 151.74998474 C218.97392117 156.90771641 220.33507028 162.06538998 221.69683838 167.22290039 C226.82267074 186.63869983 231.92182851 206.06149498 237.02046204 225.48445129 C238.67168812 231.7747024 240.32332626 238.06484526 241.97505188 244.35496521 C243.93215556 251.80808644 245.88920474 259.26122197 247.84614182 266.71438694 C251.95716537 282.37154853 256.06892434 298.02851693 260.18103027 313.68539429 C260.72166503 315.7438709 261.26229918 317.80234766 261.80293274 319.86082458 C262.0702077 320.87847995 262.33748266 321.89613531 262.61285686 322.94462872 C264.48458636 330.07140949 266.35597645 337.19827933 268.22724915 344.32518005 C269.29679776 348.39851188 270.36638002 352.47183488 271.43598938 356.54515076 C271.70111139 357.55479952 271.96623341 358.56444828 272.23938942 359.60469246 C276.00635764 373.94958175 279.7770741 388.29348204 283.55015564 402.63676453 C285.68426823 410.74960822 287.81743512 418.86270048 289.95038795 426.97584915 C291.69496112 433.61134767 293.44081131 440.24650848 295.18760777 446.88142204 C296.26183765 450.96293822 297.33485444 455.04477258 298.40752983 459.12669754 C298.90581343 461.02182144 299.40460874 462.91681088 299.90394783 464.81165695 C300.58598212 467.4000403 301.26621269 469.98889115 301.94599915 472.5778656 C302.14474136 473.33032814 302.34348358 474.08279068 302.54824829 474.85805511 C303.05442255 476.78995679 303.54484524 478.72596778 304.03364563 480.66233826 C304.28295334 481.59220551 304.53226105 482.52207275 304.78912354 483.4801178 C305.03364563 485.66233826 305.03364563 485.66233826 303.03364563 488.66233826 C292.07975051 487.04401174 281.44180701 484.00461582 270.75239563 481.18577576 C268.62056868 480.62680674 266.48864901 480.06819121 264.35664368 479.50990295 C258.61297986 478.00472426 252.87068776 476.49437323 247.12864685 474.98301697 C241.06325024 473.38749138 234.99659567 471.796762 228.93013 470.20530701 C196.37567228 461.66218507 163.83154501 453.07973197 131.29058552 444.48535347 C97.32432597 435.51512637 63.3389344 426.61859585 29.35018826 417.73400021 C23.76545321 416.27412214 18.18077556 414.81402466 12.59614563 413.35374451 C11.50697908 413.06895044 10.41781254 412.78415638 9.29564095 412.49073219 C-5.69131742 408.57139937 -20.67462387 404.63844515 -35.65385437 400.68968201 C-36.53437029 400.45761929 -37.41488621 400.22555656 -38.32208443 399.98646164 C-46.45967825 397.8417338 -54.59696214 395.69585234 -62.73273182 393.54421425 C-65.59222628 392.78824073 -68.45200178 392.03333668 -71.31193733 391.27903366 C-72.66864441 390.92119821 -74.02528825 390.56312294 -75.38186455 390.20479202 C-82.61562582 388.29566035 -89.85792325 386.42731262 -97.12309265 384.64134216 C-97.7796626 384.47950974 -98.43623255 384.31767733 -99.11269855 384.1509409 C-102.21717431 383.38667524 -105.32313736 382.62976862 -108.43215942 381.88418579 C-109.51409073 381.61995316 -110.59602203 381.35572052 -111.71073914 381.08348083 C-113.13109215 380.7422393 -113.13109215 380.7422393 -114.58013916 380.394104 C-116.96635437 379.66233826 -116.96635437 379.66233826 -119.96635437 377.66233826 C-120.17792988 375.59040451 -120.17792988 375.59040451 -119.94787598 372.97966003 C-119.83205012 371.49459536 -119.83205012 371.49459536 -119.71388435 369.97952938 C-119.61519995 368.88711217 -119.51651554 367.79469496 -119.4148407 366.66917419 C-119.23214905 364.28124818 -119.05267758 361.89307423 -118.87594604 359.50469971 C-118.77900137 358.22750376 -118.68205669 356.95030781 -118.5821743 355.63440895 C-117.67670769 342.91112035 -117.18139945 330.1603425 -116.77885437 317.41233826 C-116.75555148 316.67889395 -116.73224859 315.94544965 -116.70823956 315.18977976 C-115.10906343 265.34694016 -115.10906343 265.34694016 -138.99017334 223.07917786 C-149.37872199 212.48182721 -161.29076228 202.84761161 -173.65319824 194.63980103 C-174.2882513 194.21020206 -174.92330435 193.7806031 -175.57760143 193.33798599 C-177.28176258 192.19909267 -179.00990769 191.09631647 -180.73957825 189.99655151 C-181.47441437 189.22626114 -182.20925049 188.45597076 -182.96635437 187.66233826 C-182.82875447 182.02120896 -181.44396822 179.39320745 -177.48939514 175.47058105 C-177.0197876 174.99655253 -176.55018007 174.52252401 -176.066342 174.03413099 C-174.49659774 172.45687431 -172.90646056 170.90198213 -171.31547546 169.34617615 C-170.1825472 168.21657928 -169.05094737 167.08564872 -167.920578 165.95349121 C-164.85080164 162.88626266 -161.7629609 159.83781878 -158.67170668 156.7922585 C-155.43414741 153.59600978 -152.21403433 150.38228429 -148.99214172 147.17025757 C-142.88173952 141.08366767 -136.7566408 135.01210067 -130.62574732 128.94615883 C-121.64634624 120.06058987 -112.68893395 111.15289906 -103.73174477 102.24494839 C-102.40611579 100.92666882 -101.08047993 99.60839618 -99.75483704 98.29013062 C-99.10714249 97.64598581 -98.45944795 97.00184101 -97.7921263 96.33817667 C-93.9571532 92.52521872 -90.11792017 88.71661649 -86.27473903 84.91193211 C-83.87588827 82.53660161 -81.47899737 80.15929934 -79.0823822 77.78171349 C-77.97683121 76.68595804 -76.87036585 75.59112418 -75.76288223 74.49732208 C-70.48794031 69.28705784 -65.30598248 64.05363552 -60.4841423 58.41561031 C-58.1397198 55.70745171 -55.64319779 53.16045119 -53.12626648 50.61351013 C-52.5886821 50.06614197 -52.05109772 49.5187738 -51.4972229 48.95481873 C-49.74909456 47.17720719 -47.99709317 45.40350446 -46.24369812 43.63108826 C-45.63978304 43.02060135 -45.03586796 42.41011444 -44.41365242 41.78112793 C-41.22656196 38.56167948 -38.03556402 35.34615371 -34.84208679 32.13304138 C-32.20655605 29.47959299 -29.57983812 26.81785443 -26.96025085 24.14866638 C-23.78180865 20.91014983 -20.5889939 17.68649564 -17.38524055 14.47302246 C-16.1708701 13.25009268 -14.96164146 12.02203443 -13.75774956 10.78878784 C-12.07793722 9.07018399 -10.38028514 7.37135663 -8.67704773 5.67601013 C-8.18597534 5.16493713 -7.69490295 4.65386414 -7.18894958 4.12730408 C-4.86109362 1.84752625 -3.19916489 0.71432103 0 0 Z M-3.09591675 25.54466248 C-4.41659904 26.8674823 -4.41659904 26.8674823 -5.76396179 28.21702576 C-6.25044189 28.70160751 -6.736922 29.18618927 -7.23814392 29.68545532 C-8.85430493 31.2978958 -10.46312199 32.91745766 -12.07182312 34.53733826 C-13.19526292 35.66197049 -14.319073 36.78623296 -15.4432373 37.91014099 C-17.80602257 40.27449393 -20.16540203 42.64217725 -22.52226257 45.01243591 C-25.52520826 48.03224527 -28.53456666 51.04555797 -31.54633617 54.05656433 C-33.8725275 56.38302959 -36.19608741 58.71210835 -38.51880836 61.04203796 C-39.62606908 62.15245648 -40.73391499 63.26229182 -41.84238243 64.37150574 C-43.40469525 65.93602039 -44.96365315 67.50380655 -46.52177429 69.07249451 C-47.40620712 69.96073914 -48.29063995 70.84898376 -49.20187378 71.7641449 C-51.28276143 73.90089202 -53.23951927 76.1192567 -55.1832428 78.38121033 C-59.54133865 83.39896128 -64.23377062 88.06187826 -68.9407196 92.75022888 C-69.92717636 93.73640293 -70.91341172 94.72279848 -71.89944458 95.70939636 C-74.55373681 98.36397331 -77.21108182 101.01547449 -79.86902118 103.666399 C-82.65482271 106.44591254 -85.43775737 109.22829358 -88.2210083 112.01036072 C-93.48158086 117.26783593 -98.74469536 122.52275872 -104.00874716 127.77675009 C-110.00594751 133.76273952 -116.00027925 139.75159808 -121.99438179 145.74068928 C-134.31520251 158.05108179 -146.63958818 170.35789917 -158.96635437 182.66233826 C-155.6055626 186.64736198 -152.21610762 190.53758424 -148.52153015 194.22068787 C-147.70113251 195.04100998 -146.88073486 195.86133209 -146.03547668 196.70651245 C-145.16961945 197.5672084 -144.30376221 198.42790436 -143.41166687 199.31468201 C-142.51011871 200.21481522 -141.60857056 201.11494843 -140.67970276 202.0423584 C-138.3043722 204.41306649 -135.92690032 206.78158341 -133.54832458 209.14903259 C-131.1129072 211.57414554 -128.68038525 214.00215911 -126.24760437 216.42991638 C-121.48982668 221.17670953 -116.72920057 225.92063107 -111.96635437 230.66233826 C-106.47557788 226.0145871 -106.47557788 226.0145871 -101.24760437 221.07640076 C-100.62498718 220.45507263 -100.00237 219.83374451 -99.36088562 219.19358826 C-98.73569031 218.56452576 -98.110495 217.93546326 -97.46635437 217.28733826 C-96.84115906 216.66601013 -96.21596375 216.04468201 -95.57182312 215.40452576 C-94.94920593 214.78061951 -94.32658875 214.15671326 -93.68510437 213.51390076 C-92.86429382 212.69139832 -92.86429382 212.69139832 -92.02690125 211.85227966 C-90.88812473 210.6419923 -89.76035502 209.41979316 -88.68458462 208.15317345 C-82.8769456 201.31759278 -76.49292275 195.05588928 -70.14628601 188.72874451 C-68.85441453 187.43715551 -67.56276402 186.14534546 -66.27131653 184.85333252 C-62.7844078 181.36613821 -59.29443604 177.88202432 -55.8038857 174.39847565 C-52.14924752 170.75011103 -48.49746243 167.09889287 -44.84536743 163.44798279 C-37.9379509 156.5436678 -31.02799038 149.64190476 -24.11710113 142.74106598 C-16.24569858 134.88086117 -8.37715318 127.01779882 -0.50884068 119.15450096 C15.66882189 102.98727612 31.85005036 86.82362423 48.03364563 70.66233826 C47.07907584 69.54247861 46.12362352 68.42337121 45.1678009 67.30458069 C44.63582848 66.68129694 44.10385605 66.05801319 43.55576324 65.41584206 C41.75715289 63.34381421 39.87817853 61.37746086 37.93989563 59.43577576 C37.21930969 58.71390076 36.49872375 57.99202576 35.75630188 57.24827576 C35.02282532 56.51866638 34.28934875 55.78905701 33.53364563 55.03733826 C32.80016907 54.29999451 32.0666925 53.56265076 31.31098938 52.80296326 C28.1586894 49.65630246 25.02025817 46.57808325 21.56489563 43.76390076 C19.03364563 41.66233826 19.03364563 41.66233826 18.03364563 39.66233826 C17.37364563 39.66233826 16.71364563 39.66233826 16.03364563 39.66233826 C16.03364563 39.00233826 16.03364563 38.34233826 16.03364563 37.66233826 C14.48285493 36.09369743 14.48285493 36.09369743 12.47114563 34.47483826 C8.92368389 31.47556333 5.66841691 28.32238693 2.47895813 24.94749451 C0.03411542 22.7735668 -0.72197196 23.44632818 -3.09591675 25.54466248 Z M-6.53134131 143.33658886 C-13.86711035 151.58732578 -21.45113697 159.5929407 -29.05826211 167.59280777 C-43.11353931 182.38497689 -56.92645094 197.3800581 -70.54450989 212.57518005 C-71.27653571 213.39117736 -71.27653571 213.39117736 -72.02334994 214.22365946 C-74.61721571 217.12367533 -77.15193589 220.06446042 -79.65811157 223.04016113 C-82.00823865 225.75652522 -84.48787761 227.96099783 -87.31033325 230.18112183 C-94.11051317 235.67812587 -99.92283354 240.87600422 -101.45857239 249.80885315 C-102.13980144 257.06880927 -101.88328703 264.29650628 -101.62651062 271.57249451 C-101.59473744 274.23887002 -101.56973491 276.90446426 -101.55361938 279.57089233 C-101.50121305 285.82726489 -101.36235793 292.0784603 -101.19067806 298.33257335 C-100.99925776 305.46389577 -100.9068511 312.59549383 -100.82185566 319.72875416 C-100.64515696 334.37590522 -100.3470383 349.01903071 -99.96635437 363.66233826 C-87.78828883 366.96547687 -75.55968828 370.05057754 -63.31791687 373.10765076 C-61.21038979 373.63479754 -59.10288192 374.16202112 -56.99539185 374.6893158 C-51.36529511 376.09753806 -45.7347786 377.50407451 -40.10412979 378.91008759 C-36.55925621 379.79535418 -33.01448659 380.68103599 -29.46974182 381.56681824 C0.36854527 389.02238205 30.21401812 396.44721556 60.08043671 403.78925991 C80.8176101 408.88751897 101.54675917 414.01780083 122.27246594 419.16245079 C124.45793738 419.70493728 126.64341825 420.24738572 128.82890129 420.78982544 C142.76981125 424.25002796 156.71051721 427.7110504 170.65056318 431.17473215 C176.22606864 432.56003191 181.80174863 433.94462778 187.37754637 435.32875067 C190.63340613 436.13701805 193.88914484 436.9457651 197.14470863 437.75522423 C204.05376436 439.47304354 210.9646379 441.18310568 217.87823486 442.88255692 C221.01356775 443.65737651 224.14554178 444.44482324 227.27742004 445.23347473 C229.189869 445.70718778 231.10242008 446.18048877 233.01509094 446.65330505 C233.87705456 446.87391759 234.73901817 447.09453012 235.6271019 447.32182789 C236.81317472 447.61161534 236.81317472 447.61161534 238.02320862 447.90725708 C238.70572315 448.07833323 239.38823769 448.24940939 240.09143448 448.42566967 C242.39942427 448.82455037 242.39942427 448.82455037 246.03364563 447.66233826 C204.78364563 406.41233826 163.53364563 365.16233826 121.03364563 322.66233826 C116.08364563 324.97233826 111.13364563 327.28233826 106.03364563 329.66233826 C91.31441363 335.29562458 72.60578956 334.51751121 58.03364563 328.66233826 C40.76272892 320.73620478 28.74978926 308.09172468 21.95942688 290.31077576 C15.68599464 272.3639949 17.20522669 254.90660552 25.03364563 237.66233826 C33.31890028 221.06774391 46.56107981 211.09773628 63.62348938 204.68968201 C76.24998248 200.79485271 93.78192626 200.37867346 106.03364563 205.66233826 C106.63869934 205.92047302 107.24375305 206.17860779 107.86714172 206.44456482 C126.33630983 214.49945919 138.21368367 227.05204119 146.03364563 245.66233826 C151.54146988 261.56301817 150.57181215 279.97784206 143.36177063 295.18968201 C142.28870831 297.2201325 141.17630093 299.23072405 140.01020813 301.20921326 C138.77114842 303.54578651 138.77114842 303.54578651 139.66335869 305.49137497 C141.45491963 308.3297681 143.60437444 310.47837872 145.98167419 312.85087585 C146.48974354 313.36065405 146.99781288 313.87043224 147.52127826 314.39565825 C149.22397188 316.10164462 150.93371242 317.80038698 152.64350891 319.49925232 C153.86589281 320.72107206 155.08783646 321.94333241 156.30937195 323.16600037 C159.62699796 326.48420071 162.95075873 329.79619413 166.27564096 333.10712147 C169.74923554 336.56822208 173.21717536 340.03497906 176.68571472 343.50114441 C183.25485248 350.06406348 189.82907231 356.62186721 196.4051255 363.17785621 C203.89143559 370.64181941 211.37207428 378.1114556 218.85223794 385.58157778 C234.23973065 400.94815969 249.63434477 416.30759025 265.03364563 431.66233826 C266.39104021 428.9475491 265.73713669 427.75403988 264.99382019 424.8288269 C264.6082023 423.28912263 264.6082023 423.28912263 264.21479416 421.71831322 C263.92282276 420.58278826 263.63085136 419.4472633 263.33003235 418.27732849 C263.02801029 417.07895166 262.72598824 415.88057484 262.414814 414.64588356 C261.74951722 412.00947028 261.08170235 409.37384045 260.40971756 406.73913765 C259.31865685 402.4605192 258.23758329 398.1794169 257.15837097 393.89779663 C256.781988 392.40496444 256.40558587 390.91213708 256.02916527 389.41931438 C255.74478006 388.29147614 255.74478006 388.29147614 255.45464969 387.14085329 C254.86459751 384.80235498 254.27359823 382.46409787 253.68233681 380.12590504 C249.39888709 363.18251948 245.1853498 346.22188787 240.9747591 329.26027727 C239.92889942 325.04806588 238.88210472 320.83608689 237.83534241 316.62409973 C236.13170191 309.7686931 234.42845024 302.91319003 232.72554016 296.05760193 C231.01839983 289.18507133 229.31070755 282.31267817 227.60249329 275.44041443 C218.62920977 239.33983188 209.66917034 203.23604849 200.7628684 167.11887431 C200.19829071 164.82940987 199.63360538 162.539972 199.06891251 160.25053596 C193.45278992 137.47847315 187.84353308 114.70410788 182.36758518 91.89785194 C181.4769267 88.18396491 181.4769267 88.18396491 180.03364563 84.66233826 C178.51843228 84.65028351 178.51843228 84.65028351 176.97260857 84.63798523 C172.12776748 84.59192079 167.28367474 84.51482149 162.43940735 84.42796326 C161.54024589 84.41254738 160.64108444 84.3971315 159.71467566 84.38124847 C148.22153118 84.16032797 136.99558072 83.43760459 125.61208153 81.84794617 C62.88347238 73.0967861 33.82855845 97.84382091 -6.53134131 143.33658886 Z " fill="#0B5EAD" transform="translate(186.9663543701172,3.3376617431640625)"/>
<path d="M0 0 C0.66 0 1.32 0 2 0 C2.185625 1.7015625 2.185625 1.7015625 2.375 3.4375 C2.684375 5.2009375 2.684375 5.2009375 3 7 C3.66 7.33 4.32 7.66 5 8 C5.33 7.34 5.66 6.68 6 6 C6.99 6 7.98 6 9 6 C8.67 8.31 8.34 10.62 8 13 C7.01 12.67 6.02 12.34 5 12 C5.33 15.96 5.66 19.92 6 24 C6.66 24 7.32 24 8 24 C8.25523437 25.37285156 8.25523437 25.37285156 8.515625 26.7734375 C8.87914062 28.55621094 8.87914062 28.55621094 9.25 30.375 C9.48203125 31.55835938 9.7140625 32.74171875 9.953125 33.9609375 C10.69286471 37.10186813 10.69286471 37.10186813 13.109375 38.4140625 C13.73328125 38.60742188 14.3571875 38.80078125 15 39 C15.12701613 45.47782258 15.12701613 45.47782258 14.4375 48.3125 C13.74318116 52.57760142 14.46180691 56.73585478 15 61 C13.37497525 58.00712771 12.40997814 55.150635 11.57958984 51.85180664 C11.31947113 50.82716812 11.05935242 49.8025296 10.79135132 48.74684143 C10.51731476 47.64573532 10.2432782 46.54462921 9.9609375 45.41015625 C9.67521881 44.27348007 9.38950012 43.13680389 9.09512329 41.96568298 C8.49269746 39.56308001 7.89268977 37.15986962 7.29492188 34.75610352 C6.37891786 31.07823069 5.45167385 27.40331771 4.5234375 23.72851562 C3.93942078 21.39339998 3.35606526 19.05811884 2.7734375 16.72265625 C2.49535248 15.62357437 2.21726746 14.52449249 1.93075562 13.3921051 C1.67694122 12.36431442 1.42312683 11.33652374 1.16162109 10.27758789 C0.9367099 9.37698135 0.71179871 8.47637482 0.48007202 7.54847717 C-0.00558265 4.97036431 -0.08754356 2.61679427 0 0 Z " fill="#125EA3" transform="translate(375,118)"/>
<path d="M0 0 C0 3 0 3 -1.53125 4.61328125 C-2.1809375 5.17402344 -2.830625 5.73476562 -3.5 6.3125 C-6.60812431 9.22084414 -6.60812431 9.22084414 -7.4375 13.4375 C-7.293125 14.283125 -7.14875 15.12875 -7 16 C-6.34 16 -5.68 16 -5 16 C-5 16.66 -5 17.32 -5 18 C-5.66 18 -6.32 18 -7 18 C-7 18.66 -7 19.32 -7 20 C-7.66 20 -8.32 20 -9 20 C-9 19.34 -9 18.68 -9 18 C-10.65 17.67 -12.3 17.34 -14 17 C-14.2475 17.61875 -14.495 18.2375 -14.75 18.875 C-16.26029304 21.44249816 -17.36091208 21.71815729 -20 23 C-23.58633021 25.93644427 -23.58633021 25.93644427 -25.421875 29.9921875 C-26.18080821 32.62794204 -27.2989066 33.26837523 -29.5625 34.75 C-30.20316406 35.17796875 -30.84382813 35.6059375 -31.50390625 36.046875 C-31.99761719 36.36140625 -32.49132813 36.6759375 -33 37 C-33.66 36.34 -34.32 35.68 -35 35 C-23.45 23.45 -11.9 11.9 0 0 Z " fill="#12599B" transform="translate(67,122)"/>
<path d="M0 0 C0 3.60297389 -1.1785171 4.96419516 -3 8 C-3 8.99 -3 9.98 -3 11 C-2.34 11 -1.68 11 -1 11 C-1 11.99 -1 12.98 -1 14 C-1.66 14 -2.32 14 -3 14 C-3 14.66 -3 15.32 -3 16 C-5.38564077 15.42415568 -7.66682784 14.77772405 -10 14 C-11.90424546 15.18816913 -11.90424546 15.18816913 -13.75 17 C-14.44609375 17.64066406 -15.1421875 18.28132813 -15.859375 18.94140625 C-18.95284981 21.91633549 -22.00754023 24.9233773 -25 28 C-25.66 27.67 -26.32 27.34 -27 27 C-18.09 18.09 -9.18 9.18 0 0 Z " fill="#135A9C" transform="translate(95,94)"/>
<path d="M0 0 C2.86724686 0.57344937 3.8614515 0.8614515 6 3 C-0.27 9.27 -6.54 15.54 -13 22 C-15.1385485 19.8614515 -15.42655063 18.86724686 -16 16 C-15.34 16 -14.68 16 -14 16 C-14 15.34 -14 14.68 -14 14 C-13.34 14 -12.68 14 -12 14 C-12 14.99 -12 15.98 -12 17 C-11.34 17 -10.68 17 -10 17 C-10 16.01 -10 15.02 -10 14 C-7.82412955 11.52400949 -5.75408051 9.83605368 -3 8 C-2.27034634 5.43717258 -2.27034634 5.43717258 -2 3 C-1.34 3 -0.68 3 0 3 C0 2.01 0 1.02 0 0 Z " fill="#135EA1" transform="translate(94,112)"/>
<path d="M0 0 C0.66 0.33 1.32 0.66 2 1 C-0.87463638 8.44491082 -3.49176013 13.27833578 -10 18 C-10 16.68 -10 15.36 -10 14 C-10.66 13.34 -11.32 12.68 -12 12 C-8.04 8.04 -4.08 4.08 0 0 Z " fill="#0C4EB2" transform="translate(144,44)"/>
<path d="M0 0 C1 2 1 2 0.875 4 C0 6 0 6 -2.5625 7.25 C-3.366875 7.4975 -4.17125 7.745 -5 8 C-5 9.32 -5 10.64 -5 12 C-6.98 12.99 -6.98 12.99 -9 14 C-9 15.32 -9 16.64 -9 18 C-9.66 18.66 -10.32 19.32 -11 20 C-14 19 -14 19 -17 17 C-11.39 11.39 -5.78 5.78 0 0 Z " fill="#0A62A5" transform="translate(164,24)"/>
<path d="M0 0 C0 3.22124915 -0.79255542 5.05685384 -2 8 C-2 8.66 -2 9.32 -2 10 C-2.99 10 -3.98 10 -5 10 C-4.67 10.99 -4.34 11.98 -4 13 C-6.97 15.475 -6.97 15.475 -10 18 C-10.99 17.01 -11.98 16.02 -13 15 C-9.09489511 9.49280079 -4.90282356 4.64172645 0 0 Z " fill="#0D5EAE" transform="translate(130,58)"/>
<path d="M0 0 C0.99 0.66 1.98 1.32 3 2 C5.54207971 2.33343551 5.54207971 2.33343551 8 2 C8.66 1.34 9.32 0.68 10 0 C11.32 0 12.64 0 14 0 C14.33 0.99 14.66 1.98 15 3 C14.34 3 13.68 3 13 3 C14.97420135 5.52259061 15.96745642 5.9929808 19.1875 6.6875 C20.115625 6.790625 21.04375 6.89375 22 7 C22 7.66 22 8.32 22 9 C13.15301274 7.60213923 4.61638292 5.39537771 -4 3 C-2.68 2.01 -1.36 1.02 0 0 Z " fill="#125EA1" transform="translate(365,456)"/>
<path d="M0 0 C0.66 0 1.32 0 2 0 C2.47161454 4.02051399 2.36728517 5.53433488 -0.1875 8.7734375 C-1.115625 9.63195312 -2.04375 10.49046875 -3 11.375 C-3.928125 12.24898437 -4.85625 13.12296875 -5.8125 14.0234375 C-6.534375 14.67570312 -7.25625 15.32796875 -8 16 C-8.66 14.68 -9.32 13.36 -10 12 C-8.68 11.34 -7.36 10.68 -6 10 C-6.33 9.01 -6.66 8.02 -7 7 C-6.67 6.34 -6.34 5.68 -6 5 C-4.68 5.33 -3.36 5.66 -2 6 C-2 4.68 -2 3.36 -2 2 C-1.34 2 -0.68 2 0 2 C0 1.34 0 0.68 0 0 Z " fill="#0D5CA6" transform="translate(122,85)"/>
<path d="M0 0 C0 3 0 3 -1.9375 5 C-2.618125 5.66 -3.29875 6.32 -4 7 C-4.33 7.99 -4.66 8.98 -5 10 C-3.68 9.34 -2.36 8.68 -1 8 C-2.24976756 11.65316671 -2.67098753 12.78065836 -6 15 C-6.61875 14.835 -7.2375 14.67 -7.875 14.5 C-10.76659099 13.81962565 -12.37280858 14.75938183 -15 16 C-10.30233025 10.33870569 -5.25276628 5.14771096 0 0 Z " fill="#125C9D" transform="translate(143,165)"/>
<path d="M0 0 C1.32 1.32 2.64 2.64 4 4 C1.03 6.97 -1.94 9.94 -5 13 C-5.33 12.34 -5.66 11.68 -6 11 C-6.66 11 -7.32 11 -8 11 C-6.63629701 8.00779732 -5.05091917 5.70973471 -2.875 3.25 C-2.33617188 2.63640625 -1.79734375 2.0228125 -1.2421875 1.390625 C-0.62730469 0.70226562 -0.62730469 0.70226562 0 0 Z " fill="#125DA1" transform="translate(76,131)"/>
<path d="M0 0 C2.91819239 0.61846464 5.83441022 1.24448135 8.75 1.875 C9.575 2.04902344 10.4 2.22304688 11.25 2.40234375 C12.04921875 2.57636719 12.8484375 2.75039063 13.671875 2.9296875 C14.4050293 3.08679199 15.13818359 3.24389648 15.89355469 3.40576172 C18 4 18 4 22 6 C14.08 6.495 14.08 6.495 6 7 C5.67 5.35 5.34 3.7 5 2 C3.35 2 1.7 2 0 2 C0 1.34 0 0.68 0 0 Z " fill="#135CA0" transform="translate(378,439)"/>
<path d="M0 0 C1.79567975 3.25417945 2.77381863 6.46571529 3.6875 10.0625 C3.95949219 11.10535156 4.23148437 12.14820313 4.51171875 13.22265625 C5 16 5 16 4 19 C1.525 18.01 1.525 18.01 -1 17 C-1.02712066 15.56260487 -1.04645067 14.12506137 -1.0625 12.6875 C-1.07410156 11.88699219 -1.08570313 11.08648437 -1.09765625 10.26171875 C-1 8 -1 8 0 5 C0.03874921 3.33378384 0.0450286 1.66605828 0 0 Z " fill="#115DA2" transform="translate(419,213)"/>
<path d="M0 0 C1.63102378 3.26204757 2.70958612 6.02721316 3.6875 9.5 C3.95949219 10.4384375 4.23148437 11.376875 4.51171875 12.34375 C5.00140894 15.00766466 4.88693174 16.47611372 4 19 C2.68 18.34 1.36 17.68 0 17 C0.33 14.69 0.66 12.38 1 10 C0.01 9.67 -0.98 9.34 -2 9 C-1.34 6.03 -0.68 3.06 0 0 Z " fill="#115CA2" transform="translate(427,244)"/>
<path d="M0 0 C1.90321413 3.39740417 2.83907407 6.78559483 3.75 10.5625 C4.17539062 12.26599609 4.17539062 12.26599609 4.609375 14.00390625 C5 17 5 17 3 20 C-0.63 19.34 -4.26 18.68 -8 18 C-8 17.67 -8 17.34 -8 17 C-5.36 17 -2.72 17 0 17 C0.2784375 15.0509375 0.2784375 15.0509375 0.5625 13.0625 C0.66691406 12.33160156 0.77132813 11.60070312 0.87890625 10.84765625 C0.91886719 10.23792969 0.95882813 9.62820313 1 9 C0.67 8.67 0.34 8.34 0 8 C-0.14115161 5.32941149 -0.04247107 2.67567762 0 0 Z " fill="#175A9A" transform="translate(487,472)"/>
<path d="M0 0 C0.99 0.33 1.98 0.66 3 1 C3 1.66 3 2.32 3 3 C3.66 3 4.32 3 5 3 C5.33 4.32 5.66 5.64 6 7 C4.68 7 3.36 7 2 7 C2 7.99 2 8.98 2 10 C3.65 10.33 5.3 10.66 7 11 C5.1875 11.625 5.1875 11.625 3 12 C2.01 11.34 1.02 10.68 0 10 C-0.29296875 7.6171875 -0.29296875 7.6171875 -0.1875 4.875 C-0.16042969 3.96492188 -0.13335937 3.05484375 -0.10546875 2.1171875 C-0.07066406 1.41851562 -0.03585938 0.71984375 0 0 Z " fill="#165D9D" transform="translate(67,371)"/>
<path d="M0 0 C2.1926135 4.2186994 4.36894477 8.60185899 3.625 13.4375 C3.41875 13.953125 3.2125 14.46875 3 15 C2.01 15 1.02 15 0 15 C-2.55579195 9.46245077 -1.62077189 5.61036424 0 0 Z " fill="#125DA4" transform="translate(443,305)"/>
<path d="M0 0 C0.99 0.33 1.98 0.66 3 1 C2.5547115 6.27315333 1.91626837 11.01770224 0 16 C-0.33 16 -0.66 16 -1 16 C-2.125 12.6875 -2.125 12.6875 -3 9 C-2.34 8.01 -1.68 7.02 -1 6 C-1.33 5.67 -1.66 5.34 -2 5 C-1.67 4.01 -1.34 3.02 -1 2 C-0.34 2.33 0.32 2.66 1 3 C0.67 2.01 0.34 1.02 0 0 Z " fill="#115BA3" transform="translate(332,282)"/>
<path d="M0 0 C2.475 0.99 2.475 0.99 5 2 C5 2.66 5 3.32 5 4 C5.598125 4.268125 6.19625 4.53625 6.8125 4.8125 C8.99847854 5.99917406 10.41332594 7.09599113 12 9 C12 9.66 12 10.32 12 11 C12.99 11 13.98 11 15 11 C15.66 12.32 16.32 13.64 17 15 C14 15 14 15 12.37426758 13.73071289 C11.80345459 13.1505542 11.2326416 12.57039551 10.64453125 11.97265625 C10.02255859 11.34552734 9.40058594 10.71839844 8.75976562 10.07226562 C8.11716797 9.40904297 7.47457031 8.74582031 6.8125 8.0625 C5.83120117 7.0734668 5.83120117 7.0734668 4.83007812 6.06445312 C0 1.15378975 0 1.15378975 0 0 Z " fill="#0D6B95" transform="translate(414,432)"/>
<path d="M0 0 C1.43472656 0.25716797 1.43472656 0.25716797 2.8984375 0.51953125 C5.40949474 1.1347043 7.38103197 1.92726203 9.625 3.1875 C8.94953125 3.17589844 8.2740625 3.16429687 7.578125 3.15234375 C6.68609375 3.14332031 5.7940625 3.13429688 4.875 3.125 C3.99328125 3.11339844 3.1115625 3.10179687 2.203125 3.08984375 C-0.33472646 3.09466246 -0.33472646 3.09466246 -2.5625 3.75 C-5.06250018 4.35344832 -6.23807942 3.48491607 -8.375 2.1875 C-6.39577788 -1.77094424 -3.84940704 -0.71724876 0 0 Z " fill="#155B9B" transform="translate(229.375,401.8125)"/>
<path d="M0 0 C1.72357119 2.58535679 2.44735018 4.03811614 3.1875 6.9375 C3.36667969 7.60652344 3.54585938 8.27554687 3.73046875 8.96484375 C4.03268678 11.24680888 3.68756692 12.82026659 3 15 C2.01 14.01 1.02 13.02 0 12 C-0.99 12.495 -0.99 12.495 -2 13 C-2.33 11.35 -2.66 9.7 -3 8 C-2.01 7.34 -1.02 6.68 0 6 C0.2502157 2.91634129 0.2502157 2.91634129 0 0 Z " fill="#0F5CA5" transform="translate(459,366)"/>
<path d="M0 0 C3.00617269 3.00617269 2.59585316 5.82381598 3 10 C3.66 10 4.32 10 5 10 C6.69832609 15.83799592 7.25287193 20.93107371 7 27 C5.46959998 24.15579667 4.49180814 21.47059758 3.7109375 18.33984375 C3.49179687 17.46392578 3.27265625 16.58800781 3.046875 15.68554688 C2.82515625 14.77869141 2.6034375 13.87183594 2.375 12.9375 C2.14554687 12.02677734 1.91609375 11.11605469 1.6796875 10.17773438 C0 3.39399647 0 3.39399647 0 0 Z " fill="#1E5D97" transform="translate(378,132)"/>
<path d="M0 0 C0.33 0.66 0.66 1.32 1 2 C0.0625 4.625 0.0625 4.625 -1 7 C-0.34 7.33 0.32 7.66 1 8 C-0.32 8.99 -1.64 9.98 -3 11 C-3.99 10.34 -4.98 9.68 -6 9 C-7.98 9.99 -7.98 9.99 -10 11 C-6.79239749 7.19364503 -3.59253891 3.45436433 0 0 Z " fill="#1561A9" transform="translate(175,13)"/>
<path d="M0 0 C6.15234375 -0.09765625 6.15234375 -0.09765625 8 0 C8.33 0.33 8.66 0.66 9 1 C11.18019479 1.39666227 13.3696463 1.74315237 15.5625 2.0625 C16.76003906 2.23910156 17.95757812 2.41570312 19.19140625 2.59765625 C20.11824219 2.73042969 21.04507813 2.86320312 22 3 C22.33 3.99 22.66 4.98 23 6 C17.73229802 5.34240251 12.69866827 4.26735876 7.5625 2.9375 C6.83095703 2.75123047 6.09941406 2.56496094 5.34570312 2.37304688 C3.56296802 1.9186242 1.78136213 1.45977534 0 1 C0 0.67 0 0.34 0 0 Z " fill="#1A5D9D" transform="translate(174,409)"/>
<path d="M0 0 C4.52615993 3.67832017 8.39424999 7.41086363 12 12 C10.35 11.67 8.7 11.34 7 11 C7 10.01 7 9.02 7 8 C6.05125 7.938125 5.1025 7.87625 4.125 7.8125 C1 7 1 7 -0.4375 4.5625 C-1 2 -1 2 0 0 Z " fill="#145A99" transform="translate(401,384)"/>
<path d="M0 0 C0.66 0 1.32 0 2 0 C2 0.66 2 1.32 2 2 C2.66 2.33 3.32 2.66 4 3 C1.03 5.97 -1.94 8.94 -5 12 C-5.66 10.68 -6.32 9.36 -7 8 C-6.34 7.01 -5.68 6.02 -5 5 C-2.375 4.8125 -2.375 4.8125 0 5 C0 3.35 0 1.7 0 0 Z " fill="#155D9D" transform="translate(108,100)"/>
<path d="M0 0 C-0.33 0.66 -0.66 1.32 -1 2 C-2.32 2 -3.64 2 -5 2 C-7.22341381 3.73915636 -7.22341381 3.73915636 -9.25 6 C-9.95640625 6.7425 -10.6628125 7.485 -11.390625 8.25 C-11.92171875 8.8275 -12.4528125 9.405 -13 10 C-13.33 9.01 -13.66 8.02 -14 7 C-14.66 7 -15.32 7 -16 7 C-16 6.34 -16 5.68 -16 5 C-13.525 5.495 -13.525 5.495 -11 6 C-11.33 5.01 -11.66 4.02 -12 3 C-10.35 2.67 -8.7 2.34 -7 2 C-7 1.34 -7 0.68 -7 0 C-4.3333581 -1.33332095 -2.83319697 -0.67102033 0 0 Z " fill="#175A9E" transform="translate(190,27)"/>
<path d="M0 0 C3.68069887 1.53643852 5.98775204 3.78150945 8.75 6.625 C9.54921875 7.44226563 10.3484375 8.25953125 11.171875 9.1015625 C12.07679688 10.04128906 12.07679688 10.04128906 13 11 C9.06397659 11 8.00638119 9.41977022 5 7 C2.81785432 6.22166466 2.81785432 6.22166466 1 6 C0.67 4.02 0.34 2.04 0 0 Z " fill="#175A97" transform="translate(310,218)"/>
<path d="M0 0 C-3.3 3.3 -6.6 6.6 -10 10 C-10.66 8.68 -11.32 7.36 -12 6 C-10.35 5.67 -8.7 5.34 -7 5 C-7.33 3.68 -7.66 2.36 -8 1 C-4.59449725 -1.06762667 -4.18836538 -1.04709135 0 0 Z " fill="#155B9C" transform="translate(60,155)"/>
<path d="M0 0 C2.34159546 3.5123932 3.19254288 6.96270105 4.1875 11 C4.47270508 12.08667969 4.47270508 12.08667969 4.76367188 13.1953125 C6.12276786 18.63169643 6.12276786 18.63169643 5 22 C4.67 20.35 4.34 18.7 4 17 C3.34 17 2.68 17 2 17 C1.90912109 16.04287109 1.90912109 16.04287109 1.81640625 15.06640625 C1.73261719 14.24011719 1.64882813 13.41382813 1.5625 12.5625 C1.48128906 11.73878906 1.40007812 10.91507812 1.31640625 10.06640625 C1.21069185 8.01337975 1.21069185 8.01337975 0 7 C-0.04092937 4.66702567 -0.04241723 2.33294775 0 0 Z " fill="#165B9C" transform="translate(465,389)"/>
<path d="M0 0 C4.91935902 4.11619836 9.52647956 8.40410362 14 13 C13.01 13.33 12.02 13.66 11 14 C10 13 9 12 8 11 C7.1646875 10.2265625 7.1646875 10.2265625 6.3125 9.4375 C5 8 5 8 5 6 C3.68 5.67 2.36 5.34 1 5 C0.67 3.35 0.34 1.7 0 0 Z " fill="#165895" transform="translate(360,343)"/>
<path d="M0 0 C-0.93274109 1.12894876 -1.87140122 2.25300876 -2.8125 3.375 C-3.33457031 4.00148438 -3.85664063 4.62796875 -4.39453125 5.2734375 C-6 7 -6 7 -9 9 C-9.33 7.35 -9.66 5.7 -10 4 C-9.01 3.67 -8.02 3.34 -7 3 C-6.34 3.33 -5.68 3.66 -5 4 C-5 3.01 -5 2.02 -5 1 C-5.66 0.67 -6.32 0.34 -7 0 C-4.3333581 -1.33332095 -2.83319697 -0.67102033 0 0 Z " fill="#135DA0" transform="translate(225,108)"/>
<path d="M0 0 C2 3 2 3 2 7 C2.99 7 3.98 7 5 7 C4.979375 8.134375 4.95875 9.26875 4.9375 10.4375 C4.9293241 15.00782755 5.41308664 19.47238262 6 24 C3.82585124 20.23931026 2.89756093 16.18113804 1.875 12 C1.69324219 11.2884375 1.51148438 10.576875 1.32421875 9.84375 C0.47681609 6.42865356 0 3.54154278 0 0 Z " fill="#1D5E98" transform="translate(431,345)"/>
<path d="M0 0 C0 3.19398323 -0.51014449 4.26859824 -2 7 C-2.37125 7.7425 -2.7425 8.485 -3.125 9.25 C-3.41375 9.8275 -3.7025 10.405 -4 11 C-5.65 11 -7.3 11 -9 11 C-6.36113346 6.7973607 -3.63559661 3.43361902 0 0 Z " fill="#1C5F9F" transform="translate(104,204)"/>
<path d="M0 0 C0.99 0.33 1.98 0.66 3 1 C3.06058594 1.71027344 3.12117188 2.42054688 3.18359375 3.15234375 C3.26738281 4.07144531 3.35117187 4.99054688 3.4375 5.9375 C3.51871094 6.85402344 3.59992188 7.77054688 3.68359375 8.71484375 C3.76044976 10.96159732 3.76044976 10.96159732 5 12 C5.14115161 14.67058851 5.04247107 17.32432238 5 20 C3.20958752 16.76168874 2.26249761 13.58584892 1.375 10 C1.11460937 8.96875 0.85421875 7.9375 0.5859375 6.875 C0 4 0 4 0 0 Z " fill="#1A5D9B" transform="translate(392,187)"/>
<path d="M0 0 C0.33 1.32 0.66 2.64 1 4 C1.66 4 2.32 4 3 4 C3 3.01 3 2.02 3 1 C4.32 1.33 5.64 1.66 7 2 C4.36 4.64 1.72 7.28 -1 10 C-1.33 9.01 -1.66 8.02 -2 7 C-2.66 6.67 -3.32 6.34 -4 6 C-3.01 5.34 -2.02 4.68 -1 4 C-0.27617533 1.94074861 -0.27617533 1.94074861 0 0 Z " fill="#11589D" transform="translate(153,172)"/>
<path d="M0 0 C1.45823212 -0.0270043 2.91660675 -0.04639787 4.375 -0.0625 C5.18710938 -0.07410156 5.99921875 -0.08570313 6.8359375 -0.09765625 C9 0 9 0 11 1 C11 1.66 11 2.32 11 3 C13.64 3 16.28 3 19 3 C19 3.66 19 4.32 19 5 C12.31006781 4.46048934 6.36539272 3.11293829 0 1 C0 0.67 0 0.34 0 0 Z " fill="#185E9D" transform="translate(245,332)"/>
<path d="M0 0 C4.88049925 3.9419417 9.0580583 8.11950075 13 13 C12.01 13.495 12.01 13.495 11 14 C11 13.34 11 12.68 11 12 C10.401875 11.938125 9.80375 11.87625 9.1875 11.8125 C6.14898647 10.68390926 5.60629777 8.7237223 4 6 C3.01 6 2.02 6 1 6 C0.67 4.02 0.34 2.04 0 0 Z " fill="#195B97" transform="translate(42,201)"/>
<path d="M0 0 C0 3 0 3 -1.35546875 4.6484375 C-1.96003906 5.21820313 -2.56460938 5.78796875 -3.1875 6.375 C-3.82558594 6.98214844 -4.46367188 7.58929688 -5.12109375 8.21484375 C-6.05115234 9.09849609 -6.05115234 9.09849609 -7 10 C-7.91873707 10.97722431 -8.8357138 11.95611023 -9.75 12.9375 C-12 15 -12 15 -15 15 C-10.05 10.05 -5.1 5.1 0 0 Z " fill="#1A5894" transform="translate(111,78)"/>
<path d="M0 0 C0 3.22124915 -0.79255542 5.05685384 -2 8 C-2 8.66 -2 9.32 -2 10 C-5.75 11.125 -5.75 11.125 -8 10 C-6.34908222 5.70761377 -3.26245434 3.1206085 0 0 Z " fill="#0D43B6" transform="translate(130,58)"/>
<path d="M0 0 C0 0.66 0 1.32 0 2 C-1.75128818 1.71617054 -3.50100003 1.42260471 -5.25 1.125 C-6.22453125 0.96257812 -7.1990625 0.80015625 -8.203125 0.6328125 C-10.77264117 0.05144152 -12.72071056 -0.70840265 -15 -2 C-9.23716795 -3.23489258 -4.99782407 -3.33188271 0 0 Z " fill="#135DA1" transform="translate(250,427)"/>
<path d="M0 0 C6.86036401 0.65965039 13.34443923 2.2362764 20 4 C18.68 4.99 17.36 5.98 16 7 C15.01 6.34 14.02 5.68 13 5 C10.78632342 4.24464834 8.55468018 3.54099411 6.3125 2.875 C5.13300781 2.52179688 3.95351562 2.16859375 2.73828125 1.8046875 C1.83464844 1.53914063 0.93101563 1.27359375 0 1 C0 0.67 0 0.34 0 0 Z " fill="#185994" transform="translate(110,373)"/>
<path d="M0 0 C0.99 0.33 1.98 0.66 3 1 C3 1.66 3 2.32 3 3 C3.99 3 4.98 3 6 3 C7.60546875 4.75 7.60546875 4.75 9.1875 7 C9.71730469 7.7425 10.24710937 8.485 10.79296875 9.25 C11.19128906 9.8275 11.58960938 10.405 12 11 C9 11 9 11 6.73828125 9.1015625 C5.93777344 8.28429687 5.13726562 7.46703125 4.3125 6.625 C3.50425781 5.81289063 2.69601562 5.00078125 1.86328125 4.1640625 C0 2 0 2 0 0 Z " fill="#0D6997" transform="translate(321,338)"/>
<path d="M0 0 C0.928125 0.165 1.85625 0.33 2.8125 0.5 C5.95621353 1.07748388 5.95621353 1.07748388 9 1 C9 2.65 9 4.3 9 6 C4.545 5.01 4.545 5.01 0 4 C0 2.68 0 1.36 0 0 Z " fill="#115CA5" transform="translate(407,467)"/>
<path d="M0 0 C3.3 0.66 6.6 1.32 10 2 C6 5 6 5 3 5 C2.67 5.66 2.34 6.32 2 7 C0.4375 5.1875 0.4375 5.1875 -1 3 C-0.67 2.01 -0.34 1.02 0 0 Z " fill="#0F5BA3" transform="translate(192,393)"/>
<path d="M0 0 C1.32 0 2.64 0 4 0 C3.835 0.598125 3.67 1.19625 3.5 1.8125 C2.8885876 4.11344336 2.8885876 4.11344336 3 7 C-0.3 6.34 -3.6 5.68 -7 5 C-3 4 -3 4 0 5 C0 3.35 0 1.7 0 0 Z " fill="#115DA3" transform="translate(315,440)"/>
<path d="M0 0 C1.5 1.375 1.5 1.375 3 3 C3 3.66 3 4.32 3 5 C4.65 5 6.3 5 8 5 C8 5.66 8 6.32 8 7 C3.38 6.01 -1.24 5.02 -6 4 C-4 2.66666667 -2 1.33333333 0 0 Z " fill="#165D9F" transform="translate(226,418)"/>
<path d="M0 0 C2.97 1.98 2.97 1.98 6 4 C6.99 3.34 7.98 2.68 9 2 C8.34 3.98 7.68 5.96 7 8 C5.35 8.33 3.7 8.66 2 9 C2.04125 8.2575 2.0825 7.515 2.125 6.75 C1.99601866 3.91241048 1.42948778 2.41226062 0 0 Z " fill="#125EA1" transform="translate(70,229)"/>
<path d="M0 0 C1.58294782 -0.05437607 3.16644256 -0.09296271 4.75 -0.125 C5.63171875 -0.14820313 6.5134375 -0.17140625 7.421875 -0.1953125 C10.1135858 0.00860498 11.69904974 0.63448279 14 2 C14 2.66 14 3.32 14 4 C12.22773547 3.71715982 10.457212 3.42339502 8.6875 3.125 C7.20830078 2.88136719 7.20830078 2.88136719 5.69921875 2.6328125 C3 2 3 2 0 0 Z " fill="#195D9D" transform="translate(114,393)"/>
<path d="M0 0 C0.66 0 1.32 0 2 0 C3.86783046 5.48675196 4.2358396 10.22192976 4 16 C2.60025314 13.36518239 1.58775959 10.89629292 0.875 8 C0.70742188 7.34 0.53984375 6.68 0.3671875 6 C0 4 0 4 0 0 Z " fill="#1D5C97" transform="translate(413,272)"/>
<path d="M0 0 C2.1875 -0.5 2.1875 -0.5 5 0 C7.10353811 2.43100182 8.75029061 5.03640346 10 8 C9.67 8.66 9.34 9.32 9 10 C7.49702124 8.52386015 5.99768715 7.04400843 4.5 5.5625 C3.6646875 4.73878906 2.829375 3.91507813 1.96875 3.06640625 C0 1 0 1 0 0 Z " fill="#1C5C97" transform="translate(31,217)"/>
<path d="M0 0 C0.99 0.33 1.98 0.66 3 1 C0.36 3.64 -2.28 6.28 -5 9 C-5.66 7.68 -6.32 6.36 -7 5 C-6.01 4.34 -5.02 3.68 -4 3 C-3.34 3.33 -2.68 3.66 -2 4 C-1.34 2.68 -0.68 1.36 0 0 Z " fill="#1C5B99" transform="translate(119,92)"/>
<path d="M0 0 C1.9375 0.375 1.9375 0.375 4 1 C4.33 1.66 4.66 2.32 5 3 C5.99 3.33 6.98 3.66 8 4 C8.33 4.99 8.66 5.98 9 7 C10.49985609 8.66710346 10.49985609 8.66710346 12 10 C9 10 9 10 6.73828125 8.06640625 C5.93777344 7.24011719 5.13726562 6.41382813 4.3125 5.5625 C3.50425781 4.73878906 2.69601562 3.91507812 1.86328125 3.06640625 C0 1 0 1 0 0 Z " fill="#0D6A92" transform="translate(364,382)"/>
<path d="M0 0 C1.9375 0.375 1.9375 0.375 4 1 C4.33 1.66 4.66 2.32 5 3 C5.99 3.33 6.98 3.66 8 4 C8.33 4.99 8.66 5.98 9 7 C10.49985609 8.66710346 10.49985609 8.66710346 12 10 C9 10 9 10 6.73828125 8.06640625 C5.93777344 7.24011719 5.13726562 6.41382813 4.3125 5.5625 C3.50425781 4.73878906 2.69601562 3.91507812 1.86328125 3.06640625 C0 1 0 1 0 0 Z " fill="#0D6B92" transform="translate(348,366)"/>
<path d="M0 0 C1.8133922 3.20010388 2.52213974 6.13283843 3.125 9.75 C3.29257812 10.73484375 3.46015625 11.7196875 3.6328125 12.734375 C3.81457031 13.85585938 3.81457031 13.85585938 4 15 C3.01 15.495 3.01 15.495 2 16 C0.56554886 13.13109771 0.56926882 10.26195706 0.28125 7.09375 C0.107845 4.94556067 0.107845 4.94556067 -1 3 C-0.67 2.01 -0.34 1.02 0 0 Z " fill="#175B9B" transform="translate(450,331)"/>
<path d="M0 0 C2.31 0.33 4.62 0.66 7 1 C6.835 1.598125 6.67 2.19625 6.5 2.8125 C5.8885876 5.11344336 5.8885876 5.11344336 6 8 C4.99403703 7.0479279 3.99538437 6.08812654 3 5.125 C2.443125 4.59132812 1.88625 4.05765625 1.3125 3.5078125 C0 2 0 2 0 0 Z " fill="#155DA4" transform="translate(41,226)"/>
<path d="M0 0 C0 4.32035599 -2.06845243 6.9179135 -5 10 C-7.8125 10.9375 -7.8125 10.9375 -10 11 C-6.79239749 7.19364503 -3.59253891 3.45436433 0 0 Z " fill="#165D9E" transform="translate(89,220)"/>
<path d="M0 0 C2.41346327 4.1373656 4.5081809 9.45467653 3.55078125 14.25 C3.36902344 14.8275 3.18726563 15.405 3 16 C2.566875 14.2984375 2.566875 14.2984375 2.125 12.5625 C1.75375 11.386875 1.3825 10.21125 1 9 C0.34 8.67 -0.32 8.34 -1 8 C-0.67 5.36 -0.34 2.72 0 0 Z " fill="#19599D" transform="translate(403,152)"/>
<path d="M0 0 C7.48291572 6.15034169 7.48291572 6.15034169 10 10 C8.35 9.67 6.7 9.34 5 9 C5 8.34 5 7.68 5 7 C4.01 6.67 3.02 6.34 2 6 C0.8125 2.9375 0.8125 2.9375 0 0 Z " fill="#155896" transform="translate(350,333)"/>
<path d="M0 0 C5.50808397 0.59015185 10.64878069 1.56663769 16 3 C16 3.33 16 3.66 16 4 C13.89505699 3.91291962 11.79097858 3.80474307 9.6875 3.6875 C7.92986328 3.60048828 7.92986328 3.60048828 6.13671875 3.51171875 C2.9016314 2.98395232 1.91315119 2.57619276 0 0 Z " fill="#1B5A93" transform="translate(352,433)"/>
<path d="M0 0 C5.50808397 0.59015185 10.64878069 1.56663769 16 3 C16 3.33 16 3.66 16 4 C9.5589964 5.64451156 5.78217394 4.05498079 0 1 C0 0.67 0 0.34 0 0 Z " fill="#185994" transform="translate(247,407)"/>
<path d="M0 0 C1.32 0.33 2.64 0.66 4 1 C3.67 4.3 3.34 7.6 3 11 C1.04783565 7.09567131 0.49360009 4.27786748 0 0 Z " fill="#155C9F" transform="translate(442,390)"/>
<path d="M0 0 C4.29 0.99 8.58 1.98 13 3 C13 3.33 13 3.66 13 4 C11.741875 4.185625 10.48375 4.37125 9.1875 4.5625 C8.12595703 4.71912109 8.12595703 4.71912109 7.04296875 4.87890625 C5 5 5 5 2 4 C2 3.34 2 2.68 2 2 C1.34 2 0.68 2 0 2 C0 1.34 0 0.68 0 0 Z " fill="#165B9C" transform="translate(88,367)"/>
<path d="M0 0 C1.12894876 0.93274109 2.25300876 1.87140122 3.375 2.8125 C4.00148438 3.33457031 4.62796875 3.85664063 5.2734375 4.39453125 C7 6 7 6 9 9 C8.46375 8.71125 7.9275 8.4225 7.375 8.125 C4.64719516 6.83288192 1.87387282 5.91441408 -1 5 C-0.67 3.35 -0.34 1.7 0 0 Z " fill="#165A99" transform="translate(337,320)"/>
<path d="M0 0 C2.475 0.495 2.475 0.495 5 1 C5.33 1.99 5.66 2.98 6 4 C6.99 4.33 7.98 4.66 9 5 C8.67 6.32 8.34 7.64 8 9 C6.66368764 7.6905332 5.33102075 6.37734515 4 5.0625 C3.2575 4.33160156 2.515 3.60070312 1.75 2.84765625 C0 1 0 1 0 0 Z " fill="#1D5E96" transform="translate(17,203)"/>
<path d="M0 0 C0 3.77910478 -0.99703962 4.46106101 -3.5 7.1875 C-4.1496875 7.90292969 -4.799375 8.61835938 -5.46875 9.35546875 C-5.9740625 9.89816406 -6.479375 10.44085938 -7 11 C-7.99 10.67 -8.98 10.34 -10 10 C-6.7 6.7 -3.4 3.4 0 0 Z " fill="#165691" transform="translate(31,158)"/>
<path d="M0 0 C4.26086957 6.39130435 4.26086957 6.39130435 3.625 10.3125 C3.41875 10.869375 3.2125 11.42625 3 12 C2.71125 11.195625 2.4225 10.39125 2.125 9.5625 C1.26737432 6.8673532 1.26737432 6.8673532 -1 6 C-0.67 4.02 -0.34 2.04 0 0 Z " fill="#165C9A" transform="translate(331,244)"/>
<path d="M0 0 C0.66 0.66 1.32 1.32 2 2 C0.90536178 3.17561146 -0.20107186 4.3402489 -1.3125 5.5 C-1.92738281 6.1496875 -2.54226562 6.799375 -3.17578125 7.46875 C-5 9 -5 9 -8 9 C-8 7 -8 7 -5.6875 4.375 C-3 2 -3 2 0 2 C0 1.34 0 0.68 0 0 Z " fill="#175A9D" transform="translate(117,213)"/>
<path d="M0 0 C1.64936913 0.78427352 3.29441127 1.57765259 4.9375 2.375 C5.85402344 2.81585938 6.77054687 3.25671875 7.71484375 3.7109375 C10 5 10 5 11 7 C9.3489597 6.60446947 7.7041485 6.18286103 6.0625 5.75 C5.14597656 5.51796875 4.22945313 5.2859375 3.28515625 5.046875 C1 4 1 4 0.18359375 1.890625 C0.12300781 1.26671875 0.06242187 0.6428125 0 0 Z " fill="#185C99" transform="translate(299,211)"/>
<path d="M0 0 C-1.65 1.98 -3.3 3.96 -5 6 C-7 2.25 -7 2.25 -7 0 C-3.98968256 -0.93423645 -3.13349732 -1.04449911 0 0 Z " fill="#12599F" transform="translate(185,148)"/>
<path d="M0 0 C2.912575 0.08566397 4.56798024 0.57910955 6.66796875 2.625 C8.16091772 4.38391375 9.60436262 6.16313019 11 8 C10.39671875 7.69320312 9.7934375 7.38640625 9.171875 7.0703125 C6.82524427 5.91387937 4.4373697 4.947866 2 4 C2.33 3.34 2.66 2.68 3 2 C2.01 1.34 1.02 0.68 0 0 Z " fill="#115DA2" transform="translate(241,59)"/>
<path d="M0 0 C2.31 1.98 4.62 3.96 7 6 C5.68 6.33 4.36 6.66 3 7 C0.75 5.0625 0.75 5.0625 -1 3 C-0.67 2.01 -0.34 1.02 0 0 Z " fill="#145A99" transform="translate(417,400)"/>
<path d="M0 0 C1.32 0.33 2.64 0.66 4 1 C4 1.66 4 2.32 4 3 C4.61875 3.268125 5.2375 3.53625 5.875 3.8125 C8 5 8 5 10 8 C7 8 7 8 5.17578125 6.50390625 C4.56089844 5.86324219 3.94601562 5.22257812 3.3125 4.5625 C2.68988281 3.92441406 2.06726563 3.28632813 1.42578125 2.62890625 C0 1 0 1 0 0 Z " fill="#0D6A93" transform="translate(332,350)"/>
<path d="M0 0 C3.32901247 2.21934164 3.75023244 3.34683329 5 7 C2 7 2 7 -0.1875 5.125 C-2 3 -2 3 -2 1 C-1.34 0.67 -0.68 0.34 0 0 Z " fill="#0D679F" transform="translate(312,326)"/>
<path d="M0 0 C1.32 0.33 2.64 0.66 4 1 C1.36 3.64 -1.28 6.28 -4 9 C-4.33 8.01 -4.66 7.02 -5 6 C-4.34 6 -3.68 6 -3 6 C-3 5.34 -3 4.68 -3 4 C-2.34 4 -1.68 4 -1 4 C-0.67 2.68 -0.34 1.36 0 0 Z " fill="#155696" transform="translate(146,183)"/>
<path d="M0 0 C1.32 0.33 2.64 0.66 4 1 C4 1.66 4 2.32 4 3 C4.99 3.33 5.98 3.66 7 4 C7.66 4.66 8.32 5.32 9 6 C8.67 6.99 8.34 7.98 8 9 C6.66368764 7.6905332 5.33102075 6.37734515 4 5.0625 C3.2575 4.33160156 2.515 3.60070312 1.75 2.84765625 C0 1 0 1 0 0 Z " fill="#0E6D94" transform="translate(384,402)"/>
<path d="M0 0 C0 3 0 3 -1.75 5.25 C-2.86375 6.11625 -2.86375 6.11625 -4 7 C-6.140625 6.609375 -6.140625 6.609375 -8 6 C-7.0479279 4.99403703 -6.08812654 3.99538437 -5.125 3 C-4.59132812 2.443125 -4.05765625 1.88625 -3.5078125 1.3125 C-2 0 -2 0 0 0 Z " fill="#145A99" transform="translate(228,221)"/>
<path d="M0 0 C0.66 0.66 1.32 1.32 2 2 C-6.57142857 1.14285714 -6.57142857 1.14285714 -10 -1 C-5.93012452 -1.9249717 -3.53536724 -2.3989992 0 0 Z " fill="#195F9C" transform="translate(306,442)"/>
<path d="M0 0 C0.66 0.33 1.32 0.66 2 1 C2 4 2 4 1 6 C-0.65 5.67 -2.3 5.34 -4 5 C-2.68 3.35 -1.36 1.7 0 0 Z " fill="#115CA3" transform="translate(255,425)"/>
<path d="M0 0 C1.14926266 0.95421808 2.29430541 1.91352045 3.4375 2.875 C4.07558594 3.40867187 4.71367187 3.94234375 5.37109375 4.4921875 C7 6 7 6 8 8 C5.125 7.375 5.125 7.375 2 6 C0.625 2.875 0.625 2.875 0 0 Z " fill="#175A97" transform="translate(439,422)"/>
<path d="M0 0 C2.56616632 3.84924948 2.55097676 6.4349304 3 11 C2.67 10.01 2.34 9.02 2 8 C1.34 8 0.68 8 0 8 C-0.38063221 5.6739143 -0.71269945 3.33944736 -1 1 C-0.67 0.67 -0.34 0.34 0 0 Z " fill="#185B9C" transform="translate(413,191)"/>
<path d="M0 0 C0.99 0.33 1.98 0.66 3 1 C2.34 2.65 1.68 4.3 1 6 C-0.32 6 -1.64 6 -3 6 C-1.125 1.125 -1.125 1.125 0 0 Z " fill="#0760B3" transform="translate(188,138)"/>
<path d="M0 0 C0.66 0 1.32 0 2 0 C2.144375 1.11375 2.28875 2.2275 2.4375 3.375 C2.78372035 6.82142047 2.78372035 6.82142047 4 9 C3.0625 11.125 3.0625 11.125 2 13 C-0.28571429 4.57142857 -0.28571429 4.57142857 0 0 Z " fill="#1A6195" transform="translate(375,118)"/>
<path d="M0 0 C1.32 0.33 2.64 0.66 4 1 C3.34 2.65 2.68 4.3 2 6 C0.68 5.34 -0.64 4.68 -2 4 C-1.34 2.68 -0.68 1.36 0 0 Z " fill="#0D58A2" transform="translate(131,57)"/>
<path d="M0 0 C2.56616632 3.84924948 2.55097676 6.4349304 3 11 C2.67 10.34 2.34 9.68 2 9 C1.34 9 0.68 9 0 9 C0 6.03 0 3.06 0 0 Z " fill="#175C9A" transform="translate(459,366)"/>
<path d="M0 0 C0.66 0.33 1.32 0.66 2 1 C2 1.66 2 2.32 2 3 C2.66 3.33 3.32 3.66 4 4 C3.67 5.32 3.34 6.64 3 8 C1.35 6.02 -0.3 4.04 -2 2 C-1.34 1.34 -0.68 0.68 0 0 Z " fill="#115CA1" transform="translate(217,306)"/>
<path d="M0 0 C0.33 0 0.66 0 1 0 C1.63934602 5.11476819 -0.59466453 8.67254378 -3 13 C-4.23593891 9.29218328 -3.5678132 8.32489747 -2.0625 4.8125 C-1.68222656 3.91144531 -1.30195313 3.01039063 -0.91015625 2.08203125 C-0.60980469 1.39496094 -0.30945313 0.70789063 0 0 Z " fill="#1B5B94" transform="translate(211,241)"/>
<path d="M0 0 C0.66 1.32 1.32 2.64 2 4 C0.02 4.99 -1.96 5.98 -4 7 C-3.43628586 3.73045798 -2.50037734 2.17424117 0 0 Z " fill="#0F5A9E" transform="translate(195,113)"/>
<path d="M0 0 C1 2 1 2 0.9375 4 C0 6 0 6 -3.0625 7.25 C-4.031875 7.4975 -5.00125 7.745 -6 8 C-4.55746343 4.63408134 -2.66735273 2.48952921 0 0 Z " fill="#245799" transform="translate(164,24)"/>
<path d="M0 0 C2.31 1.98 4.62 3.96 7 6 C4 7 4 7 1 6 C0.67 4.02 0.34 2.04 0 0 Z " fill="#175C99" transform="translate(63,222)"/>
<path d="M0 0 C1.14926266 0.95421808 2.29430541 1.91352045 3.4375 2.875 C4.07558594 3.40867188 4.71367188 3.94234375 5.37109375 4.4921875 C7 6 7 6 8 8 C6.68 7.67 5.36 7.34 4 7 C4 6.34 4 5.68 4 5 C3.01 5 2.02 5 1 5 C0.67 3.35 0.34 1.7 0 0 Z " fill="#195A94" transform="translate(55,214)"/>
<path d="M0 0 C0 2 0 4 0 6 C-0.99 6.495 -0.99 6.495 -2 7 C-2.66 7.99 -3.32 8.98 -4 10 C-3.38461538 3.47692308 -3.38461538 3.47692308 -1.4375 1.0625 C-0.7259375 0.5365625 -0.7259375 0.5365625 0 0 Z " fill="#185A97" transform="translate(8,181)"/>
<path d="M0 0 C0.66 0 1.32 0 2 0 C2.33 0.99 2.66 1.98 3 3 C1.35 4.32 -0.3 5.64 -2 7 C-2 5.35 -2 3.7 -2 2 C-1.34 2 -0.68 2 0 2 C0 1.34 0 0.68 0 0 Z " fill="#09679C" transform="translate(126,83)"/>
<path d="M0 0 C2.31 1.98 4.62 3.96 7 6 C6.34 6.66 5.68 7.32 5 8 C5 7.34 5 6.68 5 6 C3.68 5.67 2.36 5.34 1 5 C0.67 3.35 0.34 1.7 0 0 Z " fill="#175996" transform="translate(432,415)"/>
<path d="M0 0 C1.69752187 0.25245197 3.38471545 0.57645775 5.0625 0.9375 C5.98160156 1.13214844 6.90070313 1.32679688 7.84765625 1.52734375 C8.91306641 1.76130859 8.91306641 1.76130859 10 2 C10 2.33 10 2.66 10 3 C7.69 3.33 5.38 3.66 3 4 C3 3.34 3 2.68 3 2 C1.68 1.67 0.36 1.34 -1 1 C-0.67 0.67 -0.34 0.34 0 0 Z " fill="#165999" transform="translate(160,385)"/>
<path d="M0 0 C1.98 1.65 3.96 3.3 6 5 C4.68 5.33 3.36 5.66 2 6 C2 5.34 2 4.68 2 4 C1.01 3.67 0.02 3.34 -1 3 C-0.67 2.01 -0.34 1.02 0 0 Z " fill="#145998" transform="translate(385,368)"/>
<path d="M0 0 C4 0 4 0 6 1 C3.03 3.475 3.03 3.475 0 6 C0 4.02 0 2.04 0 0 Z " fill="#155A9A" transform="translate(60,148)"/>
<path d="M0 0 C0.66 0 1.32 0 2 0 C2 0.99 2 1.98 2 3 C2.99 3.33 3.98 3.66 5 4 C3.68 4.99 2.36 5.98 1 7 C-0.0625 4.625 -0.0625 4.625 -1 2 C-0.67 1.34 -0.34 0.68 0 0 Z " fill="#0B669E" transform="translate(128,78)"/>
<path d="M0 0 C1.14926266 0.95421808 2.29430541 1.91352045 3.4375 2.875 C4.07558594 3.40867188 4.71367187 3.94234375 5.37109375 4.4921875 C7 6 7 6 8 8 C5.125 7.375 5.125 7.375 2 6 C0.625 2.875 0.625 2.875 0 0 Z " fill="#185892" transform="translate(215,30)"/>
<path d="M0 0 C1.14926266 0.95421808 2.29430541 1.91352045 3.4375 2.875 C4.07558594 3.40867187 4.71367187 3.94234375 5.37109375 4.4921875 C7 6 7 6 8 8 C5.125 7.375 5.125 7.375 2 6 C0.625 2.875 0.625 2.875 0 0 Z " fill="#185892" transform="translate(199,14)"/>
<path d="M0 0 C0.33 0.66 0.66 1.32 1 2 C-0.4375 4.625 -0.4375 4.625 -2 7 C-3.32 6.67 -4.64 6.34 -6 6 C-4.02 4.02 -2.04 2.04 0 0 Z " fill="#1F5B9C" transform="translate(175,13)"/>
<path d="M0 0 C1.98 0.99 1.98 0.99 4 2 C4 2.66 4 3.32 4 4 C4.99 4.33 5.98 4.66 7 5 C6.34 5.66 5.68 6.32 5 7 C3.29115995 5.37660195 1.62553283 3.70680947 0 2 C0 1.34 0 0.68 0 0 Z " fill="#0D6996" transform="translate(342,359)"/>
<path d="M0 0 C0.33 0 0.66 0 1 0 C1.33 2.64 1.66 5.28 2 8 C1.01 8 0.02 8 -1 8 C-1.04241723 5.66705225 -1.04092937 3.33297433 -1 1 C-0.67 0.67 -0.34 0.34 0 0 Z " fill="#0561B7" transform="translate(83,247)"/>
<path d="M0 0 C0.66 0.99 1.32 1.98 2 3 C0.25 6.875 0.25 6.875 -2 8 C-2.33 6.68 -2.66 5.36 -3 4 C-2.01 4 -1.02 4 0 4 C0 2.68 0 1.36 0 0 Z " fill="#0B679F" transform="translate(91,237)"/>
<path d="M0 0 C0.66 1.32 1.32 2.64 2 4 C1.01 4.66 0.02 5.32 -1 6 C-1.99 5.34 -2.98 4.68 -4 4 C-2.68 2.68 -1.36 1.36 0 0 Z " fill="#115AA2" transform="translate(157,31)"/>
</svg>
